<mxfile host="app.diagrams.net" agent="Mozilla/5.0 (Windows NT 10.0; Win64; x64) AppleWebKit/537.36 (KHTML, like Gecko) Chrome/132.0.0.0 Safari/537.36" version="26.0.14">
  <diagram name="Page-1" id="16e2658f-23c8-b752-8be9-c03fbebb8bbe">
    <mxGraphModel dx="1259" dy="662" grid="1" gridSize="10" guides="1" tooltips="1" connect="1" arrows="1" fold="1" page="1" pageScale="1" pageWidth="1169" pageHeight="827" background="none" math="0" shadow="0">
      <root>
        <mxCell id="0" />
        <mxCell id="1" parent="0" />
        <mxCell id="sU904nD6IixW8UqtTZvC-1" style="edgeStyle=orthogonalEdgeStyle;rounded=0;orthogonalLoop=1;jettySize=auto;html=1;exitX=0;exitY=0.75;exitDx=0;exitDy=0;" edge="1" parent="1" source="ThFaj4rnjqUS95xa0j-5-1">
          <mxGeometry relative="1" as="geometry">
            <mxPoint x="210" y="225" as="targetPoint" />
            <Array as="points">
              <mxPoint x="230" y="225" />
              <mxPoint x="230" y="225" />
            </Array>
          </mxGeometry>
        </mxCell>
        <mxCell id="ThFaj4rnjqUS95xa0j-5-1" value="Power Supply&lt;div&gt;240VAC - 24VDC&lt;/div&gt;" style="rounded=0;whiteSpace=wrap;html=1;" parent="1" vertex="1">
          <mxGeometry x="240" y="180" width="120" height="60" as="geometry" />
        </mxCell>
        <mxCell id="iBpimBe1-z4MmiKlYeH7-9" value="" style="edgeStyle=orthogonalEdgeStyle;rounded=0;orthogonalLoop=1;jettySize=auto;html=1;" parent="1" source="ThFaj4rnjqUS95xa0j-5-4" target="iBpimBe1-z4MmiKlYeH7-2" edge="1">
          <mxGeometry relative="1" as="geometry" />
        </mxCell>
        <mxCell id="ThFaj4rnjqUS95xa0j-5-4" value="L" style="text;html=1;align=center;verticalAlign=middle;resizable=0;points=[];autosize=1;strokeColor=none;fillColor=none;" parent="1" vertex="1">
          <mxGeometry x="65" y="18" width="30" height="30" as="geometry" />
        </mxCell>
        <mxCell id="ThFaj4rnjqUS95xa0j-5-5" value="" style="endArrow=classic;html=1;rounded=0;entryX=1;entryY=0.376;entryDx=0;entryDy=0;entryPerimeter=0;" parent="1" target="ThFaj4rnjqUS95xa0j-5-1" edge="1">
          <mxGeometry width="50" height="50" relative="1" as="geometry">
            <mxPoint x="800" y="40" as="sourcePoint" />
            <mxPoint x="370" y="201" as="targetPoint" />
            <Array as="points">
              <mxPoint x="800" y="200" />
            </Array>
          </mxGeometry>
        </mxCell>
        <mxCell id="ThFaj4rnjqUS95xa0j-5-6" value="N" style="text;html=1;align=center;verticalAlign=middle;resizable=0;points=[];autosize=1;strokeColor=none;fillColor=none;" parent="1" vertex="1">
          <mxGeometry x="785" y="18" width="30" height="30" as="geometry" />
        </mxCell>
        <mxCell id="ThFaj4rnjqUS95xa0j-5-8" value="L+" style="text;html=1;align=center;verticalAlign=middle;resizable=0;points=[];autosize=1;strokeColor=none;fillColor=none;" parent="1" vertex="1">
          <mxGeometry x="60" y="200.33" width="40" height="30" as="geometry" />
        </mxCell>
        <mxCell id="ThFaj4rnjqUS95xa0j-5-9" value="" style="endArrow=none;html=1;rounded=0;exitX=1.02;exitY=0.814;exitDx=0;exitDy=0;exitPerimeter=0;" parent="1" source="ThFaj4rnjqUS95xa0j-5-1" edge="1">
          <mxGeometry width="50" height="50" relative="1" as="geometry">
            <mxPoint x="590" y="270" as="sourcePoint" />
            <mxPoint x="800" y="1360" as="targetPoint" />
            <Array as="points">
              <mxPoint x="800" y="230" />
            </Array>
          </mxGeometry>
        </mxCell>
        <mxCell id="ThFaj4rnjqUS95xa0j-5-137" value="&lt;font style=&quot;color: rgb(179, 179, 179);&quot;&gt;GREY&lt;/font&gt;" style="edgeLabel;html=1;align=center;verticalAlign=middle;resizable=0;points=[];" parent="ThFaj4rnjqUS95xa0j-5-9" vertex="1" connectable="0">
          <mxGeometry x="-0.4078" y="-1" relative="1" as="geometry">
            <mxPoint x="1" as="offset" />
          </mxGeometry>
        </mxCell>
        <mxCell id="ThFaj4rnjqUS95xa0j-5-10" value="M" style="text;html=1;align=center;verticalAlign=middle;resizable=0;points=[];autosize=1;strokeColor=none;fillColor=none;" parent="1" vertex="1">
          <mxGeometry x="785" y="208" width="30" height="30" as="geometry" />
        </mxCell>
        <mxCell id="ThFaj4rnjqUS95xa0j-5-72" style="edgeStyle=orthogonalEdgeStyle;rounded=0;orthogonalLoop=1;jettySize=auto;html=1;" parent="1" source="ThFaj4rnjqUS95xa0j-5-11" edge="1">
          <mxGeometry relative="1" as="geometry">
            <mxPoint x="799.9999999999998" y="400" as="targetPoint" />
            <Array as="points">
              <mxPoint x="470" y="400" />
              <mxPoint x="470" y="400" />
            </Array>
          </mxGeometry>
        </mxCell>
        <mxCell id="ThFaj4rnjqUS95xa0j-5-73" value="WHITE" style="edgeLabel;html=1;align=center;verticalAlign=middle;resizable=0;points=[];" parent="ThFaj4rnjqUS95xa0j-5-72" vertex="1" connectable="0">
          <mxGeometry x="-0.0534" y="-3" relative="1" as="geometry">
            <mxPoint x="2" y="-5" as="offset" />
          </mxGeometry>
        </mxCell>
        <mxCell id="ThFaj4rnjqUS95xa0j-5-11" value="IS625" style="rounded=0;whiteSpace=wrap;html=1;" parent="1" vertex="1">
          <mxGeometry x="240" y="378" width="120" height="60" as="geometry" />
        </mxCell>
        <mxCell id="ThFaj4rnjqUS95xa0j-5-26" style="edgeStyle=orthogonalEdgeStyle;rounded=0;orthogonalLoop=1;jettySize=auto;html=1;" parent="1" source="ThFaj4rnjqUS95xa0j-5-17" edge="1">
          <mxGeometry relative="1" as="geometry">
            <mxPoint x="800" y="600" as="targetPoint" />
          </mxGeometry>
        </mxCell>
        <mxCell id="ThFaj4rnjqUS95xa0j-5-17" value="" style="pointerEvents=1;verticalLabelPosition=bottom;shadow=0;dashed=0;align=center;html=1;verticalAlign=top;shape=mxgraph.electrical.miscellaneous.light_bulb;" parent="1" vertex="1">
          <mxGeometry x="695" y="580" width="50" height="40" as="geometry" />
        </mxCell>
        <mxCell id="ThFaj4rnjqUS95xa0j-5-21" style="edgeStyle=orthogonalEdgeStyle;rounded=0;orthogonalLoop=1;jettySize=auto;html=1;exitX=1;exitY=0.5;exitDx=0;exitDy=0;exitPerimeter=0;" parent="1" source="ThFaj4rnjqUS95xa0j-5-19" edge="1">
          <mxGeometry relative="1" as="geometry">
            <mxPoint x="800" y="480" as="targetPoint" />
          </mxGeometry>
        </mxCell>
        <mxCell id="ThFaj4rnjqUS95xa0j-5-19" value="R1" style="pointerEvents=1;verticalLabelPosition=bottom;shadow=0;dashed=0;align=center;html=1;verticalAlign=top;shape=mxgraph.electrical.electro-mechanical.relay_coil_2;" parent="1" vertex="1">
          <mxGeometry x="695" y="460" width="50" height="40" as="geometry" />
        </mxCell>
        <mxCell id="ThFaj4rnjqUS95xa0j-5-23" value="Tower" style="text;html=1;align=center;verticalAlign=middle;resizable=0;points=[];autosize=1;strokeColor=none;fillColor=none;" parent="1" vertex="1">
          <mxGeometry x="690" y="528" width="60" height="30" as="geometry" />
        </mxCell>
        <mxCell id="ThFaj4rnjqUS95xa0j-5-24" value="" style="endArrow=none;dashed=1;html=1;dashPattern=1 3;strokeWidth=2;rounded=0;" parent="1" edge="1">
          <mxGeometry width="50" height="50" relative="1" as="geometry">
            <mxPoint x="760" y="820" as="sourcePoint" />
            <mxPoint x="760" y="820" as="targetPoint" />
            <Array as="points">
              <mxPoint x="680" y="820" />
              <mxPoint x="680" y="560" />
              <mxPoint x="760" y="560" />
            </Array>
          </mxGeometry>
        </mxCell>
        <mxCell id="ThFaj4rnjqUS95xa0j-5-25" value="Green" style="text;html=1;align=center;verticalAlign=middle;resizable=0;points=[];autosize=1;strokeColor=none;fillColor=none;" parent="1" vertex="1">
          <mxGeometry x="690" y="618" width="60" height="30" as="geometry" />
        </mxCell>
        <mxCell id="ThFaj4rnjqUS95xa0j-5-54" style="edgeStyle=orthogonalEdgeStyle;rounded=0;orthogonalLoop=1;jettySize=auto;html=1;" parent="1" source="ThFaj4rnjqUS95xa0j-5-29" edge="1">
          <mxGeometry relative="1" as="geometry">
            <mxPoint x="800" y="680" as="targetPoint" />
          </mxGeometry>
        </mxCell>
        <mxCell id="ThFaj4rnjqUS95xa0j-5-29" value="" style="pointerEvents=1;verticalLabelPosition=bottom;shadow=0;dashed=0;align=center;html=1;verticalAlign=top;shape=mxgraph.electrical.miscellaneous.light_bulb;" parent="1" vertex="1">
          <mxGeometry x="695" y="660" width="50" height="40" as="geometry" />
        </mxCell>
        <mxCell id="ThFaj4rnjqUS95xa0j-5-30" value="Red" style="text;html=1;align=center;verticalAlign=middle;resizable=0;points=[];autosize=1;strokeColor=none;fillColor=none;" parent="1" vertex="1">
          <mxGeometry x="695" y="698" width="50" height="30" as="geometry" />
        </mxCell>
        <mxCell id="ThFaj4rnjqUS95xa0j-5-33" style="edgeStyle=orthogonalEdgeStyle;rounded=0;orthogonalLoop=1;jettySize=auto;html=1;" parent="1" source="ThFaj4rnjqUS95xa0j-5-31" edge="1">
          <mxGeometry relative="1" as="geometry">
            <mxPoint x="799.9999999999998" y="760" as="targetPoint" />
          </mxGeometry>
        </mxCell>
        <mxCell id="ThFaj4rnjqUS95xa0j-5-31" value="" style="pointerEvents=1;verticalLabelPosition=bottom;shadow=0;dashed=0;align=center;html=1;verticalAlign=top;shape=mxgraph.electrical.electro-mechanical.buzzer;" parent="1" vertex="1">
          <mxGeometry x="712" y="740" width="33" height="40" as="geometry" />
        </mxCell>
        <mxCell id="ThFaj4rnjqUS95xa0j-5-32" value="Buzzer" style="text;html=1;align=center;verticalAlign=middle;resizable=0;points=[];autosize=1;strokeColor=none;fillColor=none;" parent="1" vertex="1">
          <mxGeometry x="690" y="778" width="60" height="30" as="geometry" />
        </mxCell>
        <mxCell id="ThFaj4rnjqUS95xa0j-5-43" value="R2" style="pointerEvents=1;verticalLabelPosition=bottom;shadow=0;dashed=0;align=center;html=1;verticalAlign=top;shape=mxgraph.electrical.electro-mechanical.relay_contacts;" parent="1" vertex="1">
          <mxGeometry x="160" y="668" width="30" height="24" as="geometry" />
        </mxCell>
        <mxCell id="ThFaj4rnjqUS95xa0j-5-44" style="edgeStyle=orthogonalEdgeStyle;rounded=0;orthogonalLoop=1;jettySize=auto;html=1;entryX=0;entryY=0.5;entryDx=0;entryDy=0;entryPerimeter=0;" parent="1" source="ThFaj4rnjqUS95xa0j-5-43" target="ThFaj4rnjqUS95xa0j-5-29" edge="1">
          <mxGeometry relative="1" as="geometry" />
        </mxCell>
        <mxCell id="ThFaj4rnjqUS95xa0j-5-131" value="3" style="edgeLabel;html=1;align=center;verticalAlign=middle;resizable=0;points=[];" parent="ThFaj4rnjqUS95xa0j-5-44" vertex="1" connectable="0">
          <mxGeometry x="0.1504" y="1" relative="1" as="geometry">
            <mxPoint as="offset" />
          </mxGeometry>
        </mxCell>
        <mxCell id="ThFaj4rnjqUS95xa0j-5-130" style="edgeStyle=orthogonalEdgeStyle;rounded=0;orthogonalLoop=1;jettySize=auto;html=1;" parent="1" source="ThFaj4rnjqUS95xa0j-5-47" edge="1">
          <mxGeometry relative="1" as="geometry">
            <mxPoint x="700" y="760" as="targetPoint" />
            <Array as="points">
              <mxPoint x="280" y="760" />
              <mxPoint x="600" y="760" />
            </Array>
          </mxGeometry>
        </mxCell>
        <mxCell id="ThFaj4rnjqUS95xa0j-5-132" value="3" style="edgeLabel;html=1;align=center;verticalAlign=middle;resizable=0;points=[];" parent="ThFaj4rnjqUS95xa0j-5-130" vertex="1" connectable="0">
          <mxGeometry x="0.1286" y="1" relative="1" as="geometry">
            <mxPoint x="-2" y="1" as="offset" />
          </mxGeometry>
        </mxCell>
        <mxCell id="ThFaj4rnjqUS95xa0j-5-47" value="" style="shape=waypoint;sketch=0;fillStyle=solid;size=6;pointerEvents=1;points=[];fillColor=none;resizable=0;rotatable=0;perimeter=centerPerimeter;snapToPoint=1;" parent="1" vertex="1">
          <mxGeometry x="270" y="670" width="20" height="20" as="geometry" />
        </mxCell>
        <mxCell id="ThFaj4rnjqUS95xa0j-5-83" style="edgeStyle=orthogonalEdgeStyle;rounded=0;orthogonalLoop=1;jettySize=auto;html=1;entryX=0;entryY=0.5;entryDx=0;entryDy=0;entryPerimeter=0;" parent="1" source="ThFaj4rnjqUS95xa0j-5-110" target="ThFaj4rnjqUS95xa0j-5-82" edge="1">
          <mxGeometry relative="1" as="geometry">
            <mxPoint x="529.9999999999998" y="1000.0000000000002" as="targetPoint" />
          </mxGeometry>
        </mxCell>
        <mxCell id="ThFaj4rnjqUS95xa0j-5-56" value="R1" style="pointerEvents=1;verticalLabelPosition=bottom;shadow=0;dashed=0;align=center;html=1;verticalAlign=top;shape=mxgraph.electrical.electro-mechanical.relay_contacts;" parent="1" vertex="1">
          <mxGeometry x="160" y="988" width="30" height="24" as="geometry" />
        </mxCell>
        <mxCell id="ThFaj4rnjqUS95xa0j-5-57" value="" style="endArrow=none;html=1;rounded=0;entryDx=0;entryDy=0;entryPerimeter=0;" parent="1" source="ThFaj4rnjqUS95xa0j-5-89" target="ThFaj4rnjqUS95xa0j-5-58" edge="1">
          <mxGeometry width="50" height="50" relative="1" as="geometry">
            <mxPoint x="80" y="1270" as="sourcePoint" />
            <mxPoint x="239" y="229" as="targetPoint" />
            <Array as="points" />
          </mxGeometry>
        </mxCell>
        <mxCell id="ThFaj4rnjqUS95xa0j-5-59" style="edgeStyle=orthogonalEdgeStyle;rounded=0;orthogonalLoop=1;jettySize=auto;html=1;entryX=0;entryY=0.5;entryDx=0;entryDy=0;entryPerimeter=0;" parent="1" source="ThFaj4rnjqUS95xa0j-5-58" target="ThFaj4rnjqUS95xa0j-5-56" edge="1">
          <mxGeometry relative="1" as="geometry">
            <mxPoint x="150" y="1000" as="targetPoint" />
          </mxGeometry>
        </mxCell>
        <mxCell id="ThFaj4rnjqUS95xa0j-5-58" value="" style="shape=waypoint;sketch=0;fillStyle=solid;size=6;pointerEvents=1;points=[];fillColor=none;resizable=0;rotatable=0;perimeter=centerPerimeter;snapToPoint=1;" parent="1" vertex="1">
          <mxGeometry x="70" y="990" width="20" height="20" as="geometry" />
        </mxCell>
        <mxCell id="ThFaj4rnjqUS95xa0j-5-61" value="" style="shape=waypoint;sketch=0;fillStyle=solid;size=6;pointerEvents=1;points=[];fillColor=none;resizable=0;rotatable=0;perimeter=centerPerimeter;snapToPoint=1;" parent="1" vertex="1">
          <mxGeometry x="70" y="670" width="20" height="20" as="geometry" />
        </mxCell>
        <mxCell id="ThFaj4rnjqUS95xa0j-5-62" style="edgeStyle=orthogonalEdgeStyle;rounded=0;orthogonalLoop=1;jettySize=auto;html=1;entryX=0;entryY=0.5;entryDx=0;entryDy=0;entryPerimeter=0;" parent="1" source="ThFaj4rnjqUS95xa0j-5-61" target="ThFaj4rnjqUS95xa0j-5-43" edge="1">
          <mxGeometry relative="1" as="geometry" />
        </mxCell>
        <mxCell id="ThFaj4rnjqUS95xa0j-5-65" value="" style="endArrow=none;html=1;rounded=0;entryDx=0;entryDy=0;entryPerimeter=0;" parent="1" source="ThFaj4rnjqUS95xa0j-5-58" target="ThFaj4rnjqUS95xa0j-5-63" edge="1">
          <mxGeometry width="50" height="50" relative="1" as="geometry">
            <mxPoint x="80" y="1000" as="sourcePoint" />
            <mxPoint x="239" y="229" as="targetPoint" />
            <Array as="points" />
          </mxGeometry>
        </mxCell>
        <mxCell id="ThFaj4rnjqUS95xa0j-5-66" style="edgeStyle=orthogonalEdgeStyle;rounded=0;orthogonalLoop=1;jettySize=auto;html=1;entryX=0;entryY=0.333;entryDx=0;entryDy=0;entryPerimeter=0;" parent="1" source="ThFaj4rnjqUS95xa0j-5-63" target="ThFaj4rnjqUS95xa0j-5-11" edge="1">
          <mxGeometry relative="1" as="geometry">
            <mxPoint x="150" y="398" as="targetPoint" />
          </mxGeometry>
        </mxCell>
        <mxCell id="ThFaj4rnjqUS95xa0j-5-67" value="BROWN" style="edgeLabel;html=1;align=center;verticalAlign=middle;resizable=0;points=[];fontColor=#663300;" parent="ThFaj4rnjqUS95xa0j-5-66" vertex="1" connectable="0">
          <mxGeometry x="0.0866" relative="1" as="geometry">
            <mxPoint as="offset" />
          </mxGeometry>
        </mxCell>
        <mxCell id="ThFaj4rnjqUS95xa0j-5-63" value="" style="shape=waypoint;sketch=0;fillStyle=solid;size=6;pointerEvents=1;points=[];fillColor=none;resizable=0;rotatable=0;perimeter=centerPerimeter;snapToPoint=1;" parent="1" vertex="1">
          <mxGeometry x="70" y="388" width="20" height="20" as="geometry" />
        </mxCell>
        <mxCell id="ThFaj4rnjqUS95xa0j-5-70" style="edgeStyle=orthogonalEdgeStyle;rounded=0;orthogonalLoop=1;jettySize=auto;html=1;entryX=0;entryY=0.5;entryDx=0;entryDy=0;entryPerimeter=0;" parent="1" source="ThFaj4rnjqUS95xa0j-5-11" target="ThFaj4rnjqUS95xa0j-5-19" edge="1">
          <mxGeometry relative="1" as="geometry">
            <Array as="points">
              <mxPoint x="350" y="480" />
            </Array>
          </mxGeometry>
        </mxCell>
        <mxCell id="ThFaj4rnjqUS95xa0j-5-71" value="GREY" style="edgeLabel;html=1;align=center;verticalAlign=middle;resizable=0;points=[];fontColor=#B3B3B3;" parent="ThFaj4rnjqUS95xa0j-5-70" vertex="1" connectable="0">
          <mxGeometry x="0.4198" y="-1" relative="1" as="geometry">
            <mxPoint x="-13" y="-1" as="offset" />
          </mxGeometry>
        </mxCell>
        <mxCell id="ThFaj4rnjqUS95xa0j-5-138" value="1" style="edgeLabel;html=1;align=center;verticalAlign=middle;resizable=0;points=[];" parent="ThFaj4rnjqUS95xa0j-5-70" vertex="1" connectable="0">
          <mxGeometry x="-0.1525" y="2" relative="1" as="geometry">
            <mxPoint x="8" as="offset" />
          </mxGeometry>
        </mxCell>
        <mxCell id="ThFaj4rnjqUS95xa0j-5-74" style="edgeStyle=orthogonalEdgeStyle;rounded=0;orthogonalLoop=1;jettySize=auto;html=1;entryX=0;entryY=0.5;entryDx=0;entryDy=0;entryPerimeter=0;" parent="1" source="ThFaj4rnjqUS95xa0j-5-11" target="ThFaj4rnjqUS95xa0j-5-17" edge="1">
          <mxGeometry relative="1" as="geometry">
            <Array as="points">
              <mxPoint x="300" y="600" />
            </Array>
          </mxGeometry>
        </mxCell>
        <mxCell id="ThFaj4rnjqUS95xa0j-5-75" value="Pink" style="edgeLabel;html=1;align=center;verticalAlign=middle;resizable=0;points=[];" parent="ThFaj4rnjqUS95xa0j-5-74" vertex="1" connectable="0">
          <mxGeometry x="0.5547" relative="1" as="geometry">
            <mxPoint as="offset" />
          </mxGeometry>
        </mxCell>
        <mxCell id="ThFaj4rnjqUS95xa0j-5-139" value="2" style="edgeLabel;html=1;align=center;verticalAlign=middle;resizable=0;points=[];" parent="ThFaj4rnjqUS95xa0j-5-74" vertex="1" connectable="0">
          <mxGeometry x="0.2112" y="2" relative="1" as="geometry">
            <mxPoint x="5" as="offset" />
          </mxGeometry>
        </mxCell>
        <mxCell id="ThFaj4rnjqUS95xa0j-5-77" value="" style="endArrow=classic;html=1;rounded=0;entryX=1;entryY=0.1;entryDx=0;entryDy=0;entryPerimeter=0;" parent="1" target="ThFaj4rnjqUS95xa0j-5-1" edge="1">
          <mxGeometry width="50" height="50" relative="1" as="geometry">
            <mxPoint x="760" y="40" as="sourcePoint" />
            <mxPoint x="380" y="186" as="targetPoint" />
            <Array as="points">
              <mxPoint x="760" y="186" />
            </Array>
          </mxGeometry>
        </mxCell>
        <mxCell id="ThFaj4rnjqUS95xa0j-5-78" value="E" style="text;html=1;align=center;verticalAlign=middle;resizable=0;points=[];autosize=1;strokeColor=none;fillColor=none;" parent="1" vertex="1">
          <mxGeometry x="745" y="18" width="30" height="30" as="geometry" />
        </mxCell>
        <mxCell id="ThFaj4rnjqUS95xa0j-5-84" style="edgeStyle=orthogonalEdgeStyle;rounded=0;orthogonalLoop=1;jettySize=auto;html=1;" parent="1" source="ThFaj4rnjqUS95xa0j-5-82" edge="1">
          <mxGeometry relative="1" as="geometry">
            <mxPoint x="799.9999999999998" y="999.9999999999998" as="targetPoint" />
          </mxGeometry>
        </mxCell>
        <mxCell id="ThFaj4rnjqUS95xa0j-5-82" value="R2" style="pointerEvents=1;verticalLabelPosition=bottom;shadow=0;dashed=0;align=center;html=1;verticalAlign=top;shape=mxgraph.electrical.electro-mechanical.relay_coil_2;" parent="1" vertex="1">
          <mxGeometry x="695" y="980" width="50" height="40" as="geometry" />
        </mxCell>
        <mxCell id="ThFaj4rnjqUS95xa0j-5-87" value="R2" style="pointerEvents=1;verticalLabelPosition=bottom;shadow=0;dashed=0;align=center;html=1;verticalAlign=top;shape=mxgraph.electrical.electro-mechanical.relay_contacts;" parent="1" vertex="1">
          <mxGeometry x="160" y="1068" width="30" height="24" as="geometry" />
        </mxCell>
        <mxCell id="ThFaj4rnjqUS95xa0j-5-88" value="" style="endArrow=none;html=1;rounded=0;entryDx=0;entryDy=0;entryPerimeter=0;" parent="1" source="ThFaj4rnjqUS95xa0j-5-122" target="ThFaj4rnjqUS95xa0j-5-89" edge="1">
          <mxGeometry width="50" height="50" relative="1" as="geometry">
            <mxPoint x="80" y="1200" as="sourcePoint" />
            <mxPoint x="80" y="1000" as="targetPoint" />
            <Array as="points" />
          </mxGeometry>
        </mxCell>
        <mxCell id="ThFaj4rnjqUS95xa0j-5-90" style="edgeStyle=orthogonalEdgeStyle;rounded=0;orthogonalLoop=1;jettySize=auto;html=1;entryX=-0.055;entryY=0.507;entryDx=0;entryDy=0;entryPerimeter=0;" parent="1" source="ThFaj4rnjqUS95xa0j-5-89" target="ThFaj4rnjqUS95xa0j-5-87" edge="1">
          <mxGeometry relative="1" as="geometry">
            <mxPoint x="120.00000000000006" y="1080" as="targetPoint" />
          </mxGeometry>
        </mxCell>
        <mxCell id="ThFaj4rnjqUS95xa0j-5-89" value="" style="shape=waypoint;sketch=0;fillStyle=solid;size=6;pointerEvents=1;points=[];fillColor=none;resizable=0;rotatable=0;perimeter=centerPerimeter;snapToPoint=1;" parent="1" vertex="1">
          <mxGeometry x="70" y="1070" width="20" height="20" as="geometry" />
        </mxCell>
        <mxCell id="ThFaj4rnjqUS95xa0j-5-93" style="edgeStyle=orthogonalEdgeStyle;rounded=0;orthogonalLoop=1;jettySize=auto;html=1;" parent="1" source="ThFaj4rnjqUS95xa0j-5-91" edge="1">
          <mxGeometry relative="1" as="geometry">
            <mxPoint x="280" y="1000" as="targetPoint" />
          </mxGeometry>
        </mxCell>
        <mxCell id="ThFaj4rnjqUS95xa0j-5-91" value="T2" style="pointerEvents=1;verticalLabelPosition=bottom;shadow=0;dashed=0;align=center;html=1;verticalAlign=top;shape=mxgraph.electrical.plc_ladder.not_contact;" parent="1" vertex="1">
          <mxGeometry x="220" y="1067.5" width="30" height="25" as="geometry" />
        </mxCell>
        <mxCell id="ThFaj4rnjqUS95xa0j-5-92" style="edgeStyle=orthogonalEdgeStyle;rounded=0;orthogonalLoop=1;jettySize=auto;html=1;exitX=1;exitY=0.5;exitDx=0;exitDy=0;exitPerimeter=0;entryX=0;entryY=0.5;entryDx=0;entryDy=0;entryPerimeter=0;" parent="1" source="ThFaj4rnjqUS95xa0j-5-87" target="ThFaj4rnjqUS95xa0j-5-91" edge="1">
          <mxGeometry relative="1" as="geometry" />
        </mxCell>
        <mxCell id="ThFaj4rnjqUS95xa0j-5-134" value="3" style="edgeLabel;html=1;align=center;verticalAlign=middle;resizable=0;points=[];" parent="ThFaj4rnjqUS95xa0j-5-92" vertex="1" connectable="0">
          <mxGeometry x="-0.3028" relative="1" as="geometry">
            <mxPoint as="offset" />
          </mxGeometry>
        </mxCell>
        <mxCell id="ThFaj4rnjqUS95xa0j-5-108" style="edgeStyle=orthogonalEdgeStyle;rounded=0;orthogonalLoop=1;jettySize=auto;html=1;" parent="1" source="ThFaj4rnjqUS95xa0j-5-94" edge="1">
          <mxGeometry relative="1" as="geometry">
            <mxPoint x="800" y="1100" as="targetPoint" />
            <Array as="points">
              <mxPoint x="800" y="1100" />
            </Array>
          </mxGeometry>
        </mxCell>
        <mxCell id="ThFaj4rnjqUS95xa0j-5-94" value="&lt;div&gt;T1&lt;/div&gt;&lt;div&gt;&lt;br&gt;&lt;/div&gt;Timer&lt;div&gt;Omron H3DK-S2&lt;/div&gt;" style="rounded=0;whiteSpace=wrap;html=1;" parent="1" vertex="1">
          <mxGeometry x="682.5" y="1067.5" width="75" height="80" as="geometry" />
        </mxCell>
        <mxCell id="ThFaj4rnjqUS95xa0j-5-95" value="" style="endArrow=none;html=1;rounded=0;entryDx=0;entryDy=0;entryPerimeter=0;" parent="1" edge="1">
          <mxGeometry width="50" height="50" relative="1" as="geometry">
            <mxPoint x="80" y="1275" as="sourcePoint" />
            <mxPoint x="80" y="1200" as="targetPoint" />
            <Array as="points" />
          </mxGeometry>
        </mxCell>
        <mxCell id="ThFaj4rnjqUS95xa0j-5-109" value="" style="edgeStyle=orthogonalEdgeStyle;rounded=0;orthogonalLoop=1;jettySize=auto;html=1;entryDx=0;entryDy=0;entryPerimeter=0;" parent="1" source="ThFaj4rnjqUS95xa0j-5-56" target="ThFaj4rnjqUS95xa0j-5-110" edge="1">
          <mxGeometry relative="1" as="geometry">
            <mxPoint x="695" y="1000" as="targetPoint" />
            <mxPoint x="190" y="1000" as="sourcePoint" />
          </mxGeometry>
        </mxCell>
        <mxCell id="ThFaj4rnjqUS95xa0j-5-133" value="4" style="edgeLabel;html=1;align=center;verticalAlign=middle;resizable=0;points=[];" parent="ThFaj4rnjqUS95xa0j-5-109" vertex="1" connectable="0">
          <mxGeometry x="0.1332" relative="1" as="geometry">
            <mxPoint as="offset" />
          </mxGeometry>
        </mxCell>
        <mxCell id="ThFaj4rnjqUS95xa0j-5-111" style="edgeStyle=orthogonalEdgeStyle;rounded=0;orthogonalLoop=1;jettySize=auto;html=1;" parent="1" source="ThFaj4rnjqUS95xa0j-5-110" edge="1">
          <mxGeometry relative="1" as="geometry">
            <mxPoint x="680" y="1100" as="targetPoint" />
            <Array as="points">
              <mxPoint x="560" y="1100" />
              <mxPoint x="680" y="1100" />
            </Array>
          </mxGeometry>
        </mxCell>
        <mxCell id="ThFaj4rnjqUS95xa0j-5-110" value="" style="shape=waypoint;sketch=0;fillStyle=solid;size=6;pointerEvents=1;points=[];fillColor=none;resizable=0;rotatable=0;perimeter=centerPerimeter;snapToPoint=1;" parent="1" vertex="1">
          <mxGeometry x="550" y="990" width="20" height="20" as="geometry" />
        </mxCell>
        <mxCell id="ThFaj4rnjqUS95xa0j-5-112" value="25/26" style="text;html=1;align=center;verticalAlign=middle;resizable=0;points=[];autosize=1;strokeColor=none;fillColor=none;" parent="1" vertex="1">
          <mxGeometry x="210" y="1038" width="50" height="30" as="geometry" />
        </mxCell>
        <mxCell id="ThFaj4rnjqUS95xa0j-5-114" value="" style="endArrow=none;html=1;rounded=0;entryDx=0;entryDy=0;entryPerimeter=0;" parent="1" edge="1">
          <mxGeometry width="50" height="50" relative="1" as="geometry">
            <mxPoint x="80" y="1360" as="sourcePoint" />
            <mxPoint x="80" y="1285" as="targetPoint" />
            <Array as="points" />
          </mxGeometry>
        </mxCell>
        <mxCell id="ThFaj4rnjqUS95xa0j-5-117" value="" style="endArrow=none;html=1;rounded=0;entryDx=0;entryDy=0;entryPerimeter=0;" parent="1" edge="1">
          <mxGeometry width="50" height="50" relative="1" as="geometry">
            <mxPoint x="80" y="1285" as="sourcePoint" />
            <mxPoint x="80" y="1275" as="targetPoint" />
            <Array as="points" />
          </mxGeometry>
        </mxCell>
        <mxCell id="sOlAFxnuyGGYMe3GVZtW-13" style="edgeStyle=orthogonalEdgeStyle;rounded=0;orthogonalLoop=1;jettySize=auto;html=1;" parent="1" source="ThFaj4rnjqUS95xa0j-5-121" edge="1">
          <mxGeometry relative="1" as="geometry">
            <mxPoint x="680" y="1200" as="targetPoint" />
          </mxGeometry>
        </mxCell>
        <mxCell id="sOlAFxnuyGGYMe3GVZtW-19" value="5" style="edgeLabel;html=1;align=center;verticalAlign=middle;resizable=0;points=[];" parent="sOlAFxnuyGGYMe3GVZtW-13" vertex="1" connectable="0">
          <mxGeometry x="-0.2903" relative="1" as="geometry">
            <mxPoint as="offset" />
          </mxGeometry>
        </mxCell>
        <mxCell id="ThFaj4rnjqUS95xa0j-5-121" value="T1" style="pointerEvents=1;verticalLabelPosition=bottom;shadow=0;dashed=0;align=center;html=1;verticalAlign=top;shape=mxgraph.electrical.electro-mechanical.relay_contacts;" parent="1" vertex="1">
          <mxGeometry x="160" y="1188" width="30" height="24" as="geometry" />
        </mxCell>
        <mxCell id="ThFaj4rnjqUS95xa0j-5-122" value="" style="shape=waypoint;sketch=0;fillStyle=solid;size=6;pointerEvents=1;points=[];fillColor=none;resizable=0;rotatable=0;perimeter=centerPerimeter;snapToPoint=1;" parent="1" vertex="1">
          <mxGeometry x="70" y="1190.0000000000002" width="20" height="20" as="geometry" />
        </mxCell>
        <mxCell id="ThFaj4rnjqUS95xa0j-5-123" style="edgeStyle=orthogonalEdgeStyle;rounded=0;orthogonalLoop=1;jettySize=auto;html=1;entryX=0;entryY=0.5;entryDx=0;entryDy=0;entryPerimeter=0;" parent="1" source="ThFaj4rnjqUS95xa0j-5-122" target="ThFaj4rnjqUS95xa0j-5-121" edge="1">
          <mxGeometry relative="1" as="geometry" />
        </mxCell>
        <mxCell id="sOlAFxnuyGGYMe3GVZtW-17" style="edgeStyle=orthogonalEdgeStyle;rounded=0;orthogonalLoop=1;jettySize=auto;html=1;" parent="1" source="ThFaj4rnjqUS95xa0j-5-124" edge="1">
          <mxGeometry relative="1" as="geometry">
            <mxPoint x="800" y="1316.025" as="targetPoint" />
          </mxGeometry>
        </mxCell>
        <mxCell id="ThFaj4rnjqUS95xa0j-5-124" value="Air Pulse" style="verticalLabelPosition=bottom;aspect=fixed;html=1;verticalAlign=top;fillColor=strokeColor;align=center;outlineConnect=0;shape=mxgraph.fluid_power.x10110;points=[[0,0,0],[0,0.5,0],[0,1,0],[1,0,0],[1,0.5,0],[1,1,0],[0.5,0,0],[0.5,1,0]]" parent="1" vertex="1">
          <mxGeometry x="702.12" y="1300" width="47.88" height="32.05" as="geometry" />
        </mxCell>
        <mxCell id="ThFaj4rnjqUS95xa0j-5-127" value="25/28" style="text;html=1;align=center;verticalAlign=middle;resizable=0;points=[];autosize=1;strokeColor=none;fillColor=none;" parent="1" vertex="1">
          <mxGeometry x="150" y="1153.98" width="50" height="30" as="geometry" />
        </mxCell>
        <mxCell id="ThFaj4rnjqUS95xa0j-5-128" value="&lt;font style=&quot;color: rgb(255, 0, 0);&quot;&gt;BAD CAN&lt;/font&gt;" style="text;html=1;align=center;verticalAlign=middle;resizable=0;points=[];autosize=1;strokeColor=none;fillColor=none;" parent="1" vertex="1">
          <mxGeometry x="355" y="448" width="80" height="30" as="geometry" />
        </mxCell>
        <mxCell id="ThFaj4rnjqUS95xa0j-5-129" value="&lt;font style=&quot;color: rgb(0, 255, 0);&quot;&gt;GOOD CAN&lt;/font&gt;" style="text;html=1;align=center;verticalAlign=middle;resizable=0;points=[];autosize=1;strokeColor=none;fillColor=none;" parent="1" vertex="1">
          <mxGeometry x="350" y="568" width="90" height="30" as="geometry" />
        </mxCell>
        <mxCell id="iBpimBe1-z4MmiKlYeH7-1" value="" style="html=1;shape=mxgraph.electrical.electro-mechanical.singleSwitch;aspect=fixed;elSwitchState=off;" parent="1" vertex="1">
          <mxGeometry x="150" y="215.66000000000003" width="55" height="14.67" as="geometry" />
        </mxCell>
        <mxCell id="iBpimBe1-z4MmiKlYeH7-2" value="" style="pointerEvents=1;verticalLabelPosition=bottom;shadow=0;dashed=0;align=center;html=1;verticalAlign=top;shape=mxgraph.electrical.electro-mechanical.circuitBreaker2;elSwitchState=off;direction=south;" parent="1" vertex="1">
          <mxGeometry x="76.25" y="70" width="7.5" height="27.5" as="geometry" />
        </mxCell>
        <mxCell id="iBpimBe1-z4MmiKlYeH7-3" value="" style="endArrow=classic;html=1;rounded=0;exitX=0.497;exitY=1.033;exitDx=0;exitDy=0;exitPerimeter=0;" parent="1" source="ThFaj4rnjqUS95xa0j-5-4" target="iBpimBe1-z4MmiKlYeH7-2" edge="1">
          <mxGeometry width="50" height="50" relative="1" as="geometry">
            <mxPoint x="76.25" y="50" as="sourcePoint" />
            <mxPoint x="80" y="60" as="targetPoint" />
          </mxGeometry>
        </mxCell>
        <mxCell id="iBpimBe1-z4MmiKlYeH7-4" value="" style="endArrow=classic;html=1;rounded=0;entryX=-0.013;entryY=0.168;entryDx=0;entryDy=0;entryPerimeter=0;" parent="1" edge="1" target="ThFaj4rnjqUS95xa0j-5-1">
          <mxGeometry width="50" height="50" relative="1" as="geometry">
            <mxPoint x="80" y="100" as="sourcePoint" />
            <mxPoint x="150" y="192" as="targetPoint" />
            <Array as="points">
              <mxPoint x="80" y="192" />
            </Array>
          </mxGeometry>
        </mxCell>
        <mxCell id="iBpimBe1-z4MmiKlYeH7-10" value="&lt;font style=&quot;font-size: 10px;&quot;&gt;CB1&lt;/font&gt;&lt;div&gt;&lt;font style=&quot;font-size: 10px;&quot;&gt;4A&lt;/font&gt;&lt;/div&gt;" style="text;html=1;align=center;verticalAlign=middle;resizable=0;points=[];autosize=1;strokeColor=none;fillColor=none;fontStyle=1" parent="1" vertex="1">
          <mxGeometry x="78.75" y="63.75" width="40" height="40" as="geometry" />
        </mxCell>
        <mxCell id="iBpimBe1-z4MmiKlYeH7-11" value="ON/OFF SW" style="text;html=1;align=center;verticalAlign=middle;resizable=0;points=[];autosize=1;strokeColor=none;fillColor=none;fontSize=10;fontStyle=1" parent="1" vertex="1">
          <mxGeometry x="140" y="230.32999999999998" width="80" height="30" as="geometry" />
        </mxCell>
        <mxCell id="iBpimBe1-z4MmiKlYeH7-12" value="UPSIDE DOWN DETECTOR CABINET&lt;div&gt;17th Feb 2025&lt;/div&gt;" style="text;html=1;align=center;verticalAlign=middle;resizable=0;points=[];autosize=1;strokeColor=none;fillColor=none;fontStyle=1;fontSize=16;" parent="1" vertex="1">
          <mxGeometry x="270" y="8" width="300" height="50" as="geometry" />
        </mxCell>
        <mxCell id="sOlAFxnuyGGYMe3GVZtW-1" value="Can Travel Delay" style="text;html=1;align=center;verticalAlign=middle;resizable=0;points=[];autosize=1;strokeColor=none;fillColor=none;" parent="1" vertex="1">
          <mxGeometry x="660" y="1040" width="120" height="30" as="geometry" />
        </mxCell>
        <mxCell id="sOlAFxnuyGGYMe3GVZtW-9" style="edgeStyle=orthogonalEdgeStyle;rounded=0;orthogonalLoop=1;jettySize=auto;html=1;" parent="1" source="sOlAFxnuyGGYMe3GVZtW-2" edge="1">
          <mxGeometry relative="1" as="geometry">
            <mxPoint x="250" y="1200" as="targetPoint" />
          </mxGeometry>
        </mxCell>
        <mxCell id="sOlAFxnuyGGYMe3GVZtW-2" value="T2" style="pointerEvents=1;verticalLabelPosition=bottom;shadow=0;dashed=0;align=center;html=1;verticalAlign=top;shape=mxgraph.electrical.electro-mechanical.relay_contacts;" parent="1" vertex="1">
          <mxGeometry x="160" y="1268" width="30" height="24" as="geometry" />
        </mxCell>
        <mxCell id="sOlAFxnuyGGYMe3GVZtW-5" style="edgeStyle=orthogonalEdgeStyle;rounded=0;orthogonalLoop=1;jettySize=auto;html=1;entryX=0;entryY=0.5;entryDx=0;entryDy=0;entryPerimeter=0;" parent="1" source="sOlAFxnuyGGYMe3GVZtW-3" target="sOlAFxnuyGGYMe3GVZtW-2" edge="1">
          <mxGeometry relative="1" as="geometry">
            <mxPoint x="150" y="1280.0000000000002" as="targetPoint" />
          </mxGeometry>
        </mxCell>
        <mxCell id="sOlAFxnuyGGYMe3GVZtW-3" value="" style="shape=waypoint;sketch=0;fillStyle=solid;size=6;pointerEvents=1;points=[];fillColor=none;resizable=0;rotatable=0;perimeter=centerPerimeter;snapToPoint=1;" parent="1" vertex="1">
          <mxGeometry x="70" y="1270" width="20" height="20" as="geometry" />
        </mxCell>
        <mxCell id="sOlAFxnuyGGYMe3GVZtW-14" style="edgeStyle=orthogonalEdgeStyle;rounded=0;orthogonalLoop=1;jettySize=auto;html=1;exitX=1;exitY=0.25;exitDx=0;exitDy=0;" parent="1" source="sOlAFxnuyGGYMe3GVZtW-12" edge="1">
          <mxGeometry relative="1" as="geometry">
            <mxPoint x="800" y="1203.689655172414" as="targetPoint" />
          </mxGeometry>
        </mxCell>
        <mxCell id="sOlAFxnuyGGYMe3GVZtW-12" value="&lt;div&gt;T2&lt;/div&gt;&lt;div&gt;&lt;br&gt;&lt;/div&gt;Timer&lt;div&gt;Omron H3DK-S2&lt;/div&gt;" style="rounded=0;whiteSpace=wrap;html=1;" parent="1" vertex="1">
          <mxGeometry x="682.5" y="1183.98" width="75" height="80" as="geometry" />
        </mxCell>
        <mxCell id="sOlAFxnuyGGYMe3GVZtW-16" style="edgeStyle=orthogonalEdgeStyle;rounded=0;orthogonalLoop=1;jettySize=auto;html=1;" parent="1" source="sOlAFxnuyGGYMe3GVZtW-15" edge="1">
          <mxGeometry relative="1" as="geometry">
            <mxPoint x="700" y="1320.0000000000002" as="targetPoint" />
            <Array as="points">
              <mxPoint x="560" y="1320" />
            </Array>
          </mxGeometry>
        </mxCell>
        <mxCell id="sOlAFxnuyGGYMe3GVZtW-15" value="" style="shape=waypoint;sketch=0;fillStyle=solid;size=6;pointerEvents=1;points=[];fillColor=none;resizable=0;rotatable=0;perimeter=centerPerimeter;snapToPoint=1;" parent="1" vertex="1">
          <mxGeometry x="550" y="1192" width="20" height="20" as="geometry" />
        </mxCell>
        <mxCell id="sOlAFxnuyGGYMe3GVZtW-18" value="Air Pulse Duration" style="text;html=1;align=center;verticalAlign=middle;resizable=0;points=[];autosize=1;strokeColor=none;fillColor=none;" parent="1" vertex="1">
          <mxGeometry x="655" y="1158" width="120" height="30" as="geometry" />
        </mxCell>
        <mxCell id="sOlAFxnuyGGYMe3GVZtW-20" value="&#39;A&#39; Mode" style="text;html=1;align=center;verticalAlign=middle;resizable=0;points=[];autosize=1;strokeColor=none;fillColor=none;" parent="1" vertex="1">
          <mxGeometry x="607.5" y="1100" width="70" height="30" as="geometry" />
        </mxCell>
        <mxCell id="sOlAFxnuyGGYMe3GVZtW-21" value="&#39;E&#39; Mode" style="text;html=1;align=center;verticalAlign=middle;resizable=0;points=[];autosize=1;strokeColor=none;fillColor=none;" parent="1" vertex="1">
          <mxGeometry x="607.5" y="1200" width="70" height="30" as="geometry" />
        </mxCell>
        <mxCell id="sOlAFxnuyGGYMe3GVZtW-22" value="15/18" style="text;html=1;align=center;verticalAlign=middle;resizable=0;points=[];autosize=1;strokeColor=none;fillColor=none;" parent="1" vertex="1">
          <mxGeometry x="150" y="1238" width="50" height="30" as="geometry" />
        </mxCell>
        <mxCell id="sU904nD6IixW8UqtTZvC-2" style="edgeStyle=orthogonalEdgeStyle;rounded=0;orthogonalLoop=1;jettySize=auto;html=1;exitX=0;exitY=0.8;exitDx=0;exitDy=0;entryX=0.608;entryY=0.017;entryDx=0;entryDy=0;entryPerimeter=0;" edge="1" parent="1" source="iBpimBe1-z4MmiKlYeH7-1" target="ThFaj4rnjqUS95xa0j-5-63">
          <mxGeometry relative="1" as="geometry" />
        </mxCell>
        <mxCell id="sU904nD6IixW8UqtTZvC-3" value="BLUE" style="edgeLabel;html=1;align=center;verticalAlign=middle;resizable=0;points=[];fontColor=#00FFFF;" vertex="1" connectable="0" parent="sU904nD6IixW8UqtTZvC-2">
          <mxGeometry x="0.0543" relative="1" as="geometry">
            <mxPoint as="offset" />
          </mxGeometry>
        </mxCell>
      </root>
    </mxGraphModel>
  </diagram>
</mxfile>
